<svg id="Layer_1" data-name="Layer 1" xmlns="http://www.w3.org/2000/svg" xmlns:xlink="http://www.w3.org/1999/xlink" viewBox="0 0 32 32"><defs><linearGradient id="linear-gradient" x1="11.65" y1="15.91" x2="20.36" y2="15.91" gradientTransform="translate(0 0)" gradientUnits="userSpaceOnUse"><stop offset="0" stop-color="#fff89a"/><stop offset="0.52" stop-color="#ffc900"/><stop offset="1" stop-color="#ea9d2b"/></linearGradient><linearGradient id="linear-gradient-2" x1="11.56" y1="15.91" x2="20.46" y2="15.91" gradientUnits="userSpaceOnUse"><stop offset="0" stop-color="#ea9d2b"/><stop offset="0.52" stop-color="#ffc900"/><stop offset="0.8" stop-color="#ffe65d"/><stop offset="1" stop-color="#fff89a"/></linearGradient></defs><path d="M17.43,5.13,11.68,15.26a.22.22,0,0,0,.19.33h3.37a.22.22,0,0,1,.22.25l-1.74,10.7a.22.22,0,0,0,.41.14l6.2-11.89a.22.22,0,0,0-.19-.32H16.75a.22.22,0,0,1-.21-.25l1.29-9A.21.21,0,0,0,17.43,5.13Z" stroke-miterlimit="10" stroke-width="0.2" fill="url(#linear-gradient)" stroke="url(#linear-gradient-2)"/></svg>